<svg width="18" height="18" viewBox="0 0 18 18" fill="none" xmlns="http://www.w3.org/2000/svg">
<path d="M8.81254 2.25C8.94847 2.25001 9.07979 2.29923 9.18224 2.38858C9.28468 2.47792 9.3513 2.60133 9.36979 2.736L9.37504 2.8125L9.37579 8.25H14.8155C14.9581 8.25004 15.0952 8.30418 15.1994 8.40148C15.3035 8.49878 15.3668 8.63197 15.3766 8.77416C15.3863 8.91635 15.3417 9.05692 15.2517 9.16747C15.1618 9.27803 15.0332 9.35032 14.892 9.36975L14.8155 9.375H9.37579L9.37729 14.8125C9.37706 14.955 9.32278 15.092 9.22543 15.196C9.12807 15.3 8.99488 15.3632 8.85275 15.3728C8.71063 15.3824 8.57014 15.3377 8.45967 15.2478C8.34919 15.1579 8.27695 15.0294 8.25754 14.8882L8.25229 14.8118L8.25079 9.375H2.81404C2.67152 9.37496 2.53433 9.32082 2.43019 9.22352C2.32606 9.12622 2.26273 8.99303 2.25302 8.85084C2.2433 8.70865 2.28792 8.56808 2.37786 8.45753C2.4678 8.34697 2.59635 8.27468 2.73754 8.25525L2.81404 8.25H8.25154L8.25004 2.8125C8.25004 2.66332 8.3093 2.52024 8.41479 2.41475C8.52028 2.30926 8.66335 2.25 8.81254 2.25Z" fill="#212121"/>
</svg>
