<svg width="16" height="16" viewBox="0 0 32 32" fill="#fff" xmlns="http://www.w3.org/2000/svg"><path d="M13.3333 3.66675C15.1601 3.66652 16.9495 4.18394 18.4943 5.15904C20.0391 6.13414 21.276 7.52701 22.0616 9.17624C22.8472 10.8255 23.1494 12.6636 22.9332 14.4775C22.717 16.2915 21.9912 18.007 20.8399 19.4254L27.3733 25.9587C27.5527 26.137 27.6579 26.3765 27.6677 26.6292C27.6776 26.8818 27.5914 27.1289 27.4264 27.3205C27.2615 27.5122 27.0301 27.6342 26.7787 27.6621C26.5274 27.69 26.2749 27.6216 26.0719 27.4707L25.9599 27.3734L19.4253 20.8401C18.2238 21.8149 16.8059 22.4871 15.2906 22.8001C13.7754 23.1132 12.2072 23.058 10.7178 22.6391C9.22834 22.2202 7.86121 21.45 6.73127 20.393C5.60133 19.3361 4.7416 18.0234 4.22433 16.5652C3.70706 15.107 3.54736 13.546 3.75866 12.0133C3.96996 10.4806 4.54608 9.02095 5.4386 7.75712C6.33112 6.49328 7.51397 5.46215 8.88774 4.75038C10.2615 4.03861 11.7861 3.66699 13.3333 3.66675ZM13.3333 5.66675C12.3265 5.66675 11.3295 5.86505 10.3994 6.25034C9.46921 6.63562 8.62404 7.20035 7.91212 7.91226C7.20021 8.62418 6.63549 9.46935 6.2502 10.3995C5.86491 11.3297 5.66661 12.3266 5.66661 13.3334C5.66661 14.3402 5.86491 15.3372 6.2502 16.2673C6.63549 17.1975 7.20021 18.0427 7.91212 18.7546C8.62404 19.4665 9.46921 20.0312 10.3994 20.4165C11.3295 20.8018 12.3265 21.0001 13.3333 21.0001C15.3666 21.0001 17.3166 20.1923 18.7544 18.7546C20.1922 17.3168 20.9999 15.3667 20.9999 13.3334C20.9999 11.3001 20.1922 9.35004 18.7544 7.91226C17.3166 6.47448 15.3666 5.66675 13.3333 5.66675Z" fill="#fff" /></svg>