<svg width="22" height="15" viewBox="0 0 22 15" fill="none" xmlns="http://www.w3.org/2000/svg">
<path d="M2.77778 1H6.33334L4.70371 3.96297H1L2.77778 1Z" stroke="#BEBEBE" stroke-width="0.5" stroke-linejoin="round"/>
<path d="M6.33325 1L8.13401 3.85359L6.43038 6.72846L4.70361 3.96297L6.33325 1Z" stroke="#BEBEBE" stroke-width="0.5" stroke-linejoin="round"/>
<path d="M13.0001 1.59259L14.2033 3.74709L10.2636 10.7746L10.6895 11.654L9.29638 14.0371L7.66675 11.0741L13.0001 1.59259Z" stroke="#BEBEBE" stroke-width="0.5" stroke-linejoin="round"/>
<path d="M15.6668 1.29633H19.2224L13.889 10.7778H10.1853L15.6668 1.29633Z" stroke="#BEBEBE" stroke-width="0.5" stroke-linejoin="round"/>
<path d="M19.2223 1.29633L21 4.25929L15.5185 13.7408L13.8889 10.7778L19.2223 1.29633Z" stroke="#BEBEBE" stroke-width="0.5" stroke-linejoin="round"/>
<path d="M4.51382 10.0292L1 3.96295H4.70371L6.4304 6.72843L4.51382 10.0292Z" stroke="#BEBEBE" stroke-width="0.5" stroke-linejoin="round"/>
<path d="M5.74079 14.037H9.29636L7.66672 11.0741H3.96301L5.74079 14.037Z" stroke="#BEBEBE" stroke-width="0.5" stroke-linejoin="round"/>
<path d="M11.9631 13.7408H15.5186L13.889 10.7778H10.1853L11.9631 13.7408Z" stroke="#BEBEBE" stroke-width="0.5" stroke-linejoin="round"/>
<path d="M9.44451 1.59259H13.0001L7.66672 11.0741H3.96301L9.44451 1.59259Z" stroke="#BEBEBE" stroke-width="0.5" stroke-linejoin="round"/>
</svg>
